<?xml version="1.0" encoding="UTF-8" standalone="no"?>
<!-- Created with Inkscape (http://www.inkscape.org/) -->

<svg
   width="64"
   height="64"
   viewBox="0 0 16.933333 16.933333"
   version="1.1"
   id="svg20219"
   inkscape:version="1.1.1 (3bf5ae0d25, 2021-09-20)"
   sodipodi:docname="design02.svg"
   xmlns:inkscape="http://www.inkscape.org/namespaces/inkscape"
   xmlns:sodipodi="http://sodipodi.sourceforge.net/DTD/sodipodi-0.dtd"
   xmlns="http://www.w3.org/2000/svg"
   xmlns:svg="http://www.w3.org/2000/svg">
  <sodipodi:namedview
     id="namedview20221"
     pagecolor="#505050"
     bordercolor="#eeeeee"
     borderopacity="1"
     inkscape:pageshadow="0"
     inkscape:pageopacity="0"
     inkscape:pagecheckerboard="0"
     inkscape:document-units="mm"
     showgrid="false"
     units="px"
     inkscape:zoom="8"
     inkscape:cx="26.875"
     inkscape:cy="28"
     inkscape:window-width="1920"
     inkscape:window-height="976"
     inkscape:window-x="-8"
     inkscape:window-y="-8"
     inkscape:window-maximized="1"
     inkscape:current-layer="layer1"
     inkscape:snap-bbox="true"
     inkscape:snap-bbox-midpoints="true"
     inkscape:snap-object-midpoints="true" />
  <defs
     id="defs20216" />
  <g
     inkscape:label="Layer 1"
     inkscape:groupmode="layer"
     id="layer1"
     style="display:inline">
    <g
       id="path31077"
       style="display:inline">
      <path
         style="color:#000000;fill:#000000;stroke-width:0.255303;stroke-linecap:round;stroke-linejoin:round;-inkscape-stroke:none"
         d="M 2.6034446,1.9263108 A 0.6773333,0.6773333 0 0 0 1.9245984,2.605157 v 5.8019231 a 0.67740104,0.67740104 0 0 0 -0.013462,0.013462 V 14.345542 A 0.67740104,0.67740104 0 0 0 2.58806,15.024388 h 11.740385 a 0.6773333,0.6773333 0 0 0 0.676923,-0.678846 0.6773333,0.6773333 0 0 0 -0.676923,-0.676923 H 3.2669061 V 9.0974647 h 5.0865385 a 0.67788465,0.67788465 0 0 0 0,-1.3557693 H 3.2803677 V 2.605157 A 0.6773333,0.6773333 0 0 0 2.6034446,1.9263108 Z"
         id="path3160" />
      <path
         style="color:#000000;fill:#ffffff;stroke-linecap:round;stroke-linejoin:round;-inkscape-stroke:none"
         d="M 2.6035156,1.7988281 C 2.159063,1.7978343 1.7958812,2.1610161 1.796875,2.6054688 v 5.78125 a 0.12766426,0.12766426 0 0 0 -0.013672,0.033203 v 5.9257812 c -9.462e-4,0.443548 0.3611387,0.806329 0.8046875,0.806641 H 14.328125 c 0.443573,-2.68e-4 0.805678,-0.363069 0.804688,-0.806641 -2.69e-4,-0.442693 -0.361995,-0.804419 -0.804688,-0.804687 H 3.3945313 V 9.2246094 h 4.9589843 c 0.2578741,0 0.46714,-0.1004836 0.6035157,-0.2539063 0.1363756,-0.1534226 0.2011718,-0.3529433 0.2011718,-0.5507812 0,-0.197838 -0.064796,-0.3973586 -0.2011718,-0.5507813 C 8.8206556,7.715718 8.6113897,7.6132812 8.3535156,7.6132812 H 3.4082031 V 2.6054688 C 3.409194,2.1618965 3.0470889,1.7990957 2.6035156,1.7988281 Z m 0,0.2558594 c 0.3054503,1.842e-4 0.5495105,0.2453316 0.5488282,0.5507813 V 7.7421875 A 0.12766426,0.12766426 0 0 0 3.28125,7.8691406 h 5.0722656 c 0.1940484,0 0.3225238,0.069138 0.4121094,0.1699219 0.089586,0.1007838 0.1386719,0.2397553 0.1386719,0.3808594 0,0.141104 -0.049086,0.2800755 -0.1386719,0.3808594 C 8.6760394,8.9015651 8.547564,8.9707031 8.3535156,8.9707031 H 3.2675781 A 0.12766426,0.12766426 0 0 0 3.1386719,9.0976563 v 4.5703127 a 0.12766426,0.12766426 0 0 0 0.1289062,0.128906 H 14.328125 c 0.304827,1.85e-4 0.548644,0.244001 0.548828,0.548828 6.82e-4,0.30545 -0.243378,0.550597 -0.548828,0.550781 H 2.5878906 C 2.2824467,14.89627 2.0384109,14.651146 2.0390625,14.345703 V 8.4375 A 0.12766426,0.12766426 0 0 0 2.0527344,8.40625 V 2.6054688 C 2.05205,2.2993953 2.2974421,2.0540031 2.6035156,2.0546875 Z"
         id="path3162" />
    </g>
    <g
       id="path20312"
       style="display:inline">
      <path
         style="color:#000000;fill:#f6511d;stroke-width:0.260512;stroke-linecap:round;stroke-linejoin:round;-inkscape-stroke:none"
         d="M 5.0750723,2.6044323 A 2.4723523,2.4723523 0 0 1 2.60272,5.0767846 2.4723523,2.4723523 0 0 1 0.13036776,2.6044323 2.4723523,2.4723523 0 0 1 2.60272,0.13208008 2.4723523,2.4723523 0 0 1 5.0750723,2.6044323 Z"
         id="path3166" />
      <path
         style="color:#000000;fill:#ffffff;stroke-linecap:round;stroke-linejoin:round;-inkscape-stroke:none"
         d="M 2.6035156,0.00195313 C 1.167679,0.00195313 0,1.167679 0,2.6035156 c 0,1.4358366 1.167679,2.6035156 2.6035156,2.6035156 1.4358366,0 2.6015625,-1.167679 2.6015625,-2.6035156 0,-1.4358366 -1.1657259,-2.60156247 -2.6015625,-2.60156247 z m 0,0.25976562 c 1.2950456,0 2.3417969,1.04675125 2.3417969,2.34179685 0,1.2950456 -1.0467513,2.34375 -2.3417969,2.34375 -1.2950456,0 -2.34374997,-1.0487044 -2.34374997,-2.34375 0,-1.2950456 1.04870437,-2.34179685 2.34374997,-2.34179685 z"
         id="path3168" />
    </g>
    <g
       id="path20312-4"
       style="display:inline">
      <path
         style="color:#000000;fill:#1eafbe;stroke-width:0.260512;stroke-linecap:round;stroke-linejoin:round;-inkscape-stroke:none"
         d="m 16.803189,14.332548 a 2.4723523,2.4723523 0 0 1 -2.472353,2.472352 2.4723523,2.4723523 0 0 1 -2.472352,-2.472352 2.4723523,2.4723523 0 0 1 2.472352,-2.472352 2.4723523,2.4723523 0 0 1 2.472353,2.472352 z"
         id="path3172" />
      <path
         style="color:#000000;fill:#ffffff;stroke-linecap:round;stroke-linejoin:round;-inkscape-stroke:none"
         d="m 14.330078,11.730469 c -1.435836,0 -2.601562,1.165726 -2.601562,2.601562 0,1.435837 1.165726,2.603516 2.601562,2.603516 1.435837,0 2.603516,-1.167679 2.603516,-2.603516 0,-1.435836 -1.167679,-2.601562 -2.603516,-2.601562 z m 0,0.259765 c 1.295046,0 2.34375,1.046752 2.34375,2.341797 0,1.295046 -1.048704,2.341797 -2.34375,2.341797 -1.295045,0 -2.341797,-1.046751 -2.341797,-2.341797 0,-1.295045 1.046752,-2.341797 2.341797,-2.341797 z"
         id="path3174" />
    </g>
    <g
       id="circle20438"
       style="display:inline">
      <path
         style="color:#000000;fill:#ffb400;stroke-width:0.260512;stroke-linecap:round;stroke-linejoin:round;-inkscape-stroke:none"
         d="M 10.93913,8.4684896 A 2.4723523,2.4723523 0 0 1 8.4667778,10.940842 2.4723523,2.4723523 0 0 1 5.9944255,8.4684896 2.4723523,2.4723523 0 0 1 8.4667778,5.9961374 2.4723523,2.4723523 0 0 1 10.93913,8.4684896 Z"
         id="path3178" />
      <path
         style="color:#000000;fill:#ffffff;stroke-linecap:round;stroke-linejoin:round;-inkscape-stroke:none"
         d="m 8.4667969,5.8652344 c -1.4358366,0 -2.6035156,1.167679 -2.6035157,2.6035156 0,1.4358366 1.1676791,2.601562 2.6035157,2.601563 1.4358366,0 2.6035151,-1.1657264 2.6035161,-2.601563 0,-1.4358366 -1.1676795,-2.6035156 -2.6035161,-2.6035156 z m 0,0.2617187 c 1.2950456,0 2.3417971,1.0467513 2.3417971,2.3417969 0,1.2950456 -1.0467515,2.341797 -2.3417971,2.341797 C 7.1717513,10.810547 6.125,9.7637956 6.125,8.46875 6.125,7.1737044 7.1717513,6.1269531 8.4667969,6.1269531 Z"
         id="path3180" />
    </g>
  </g>
</svg>
